HIERARCHY
ROOT hip
{
  OFFSET 0 0 0
  CHANNELS 6 Xposition Yposition Zposition Zrotation Yrotation Xrotation
  JOINT abdomen
  {
    OFFSET 0 20.6881 -0.73152
    CHANNELS 3 Zrotation Xrotation Yrotation
    JOINT chest
    {
      OFFSET 0 11.7043 -0.48768
      CHANNELS 3 Zrotation Xrotation Yrotation
      JOINT neck
      {
        OFFSET 0 22.1894 -2.19456
        CHANNELS 3 Zrotation Xrotation Yrotation
        JOINT head
        {
          OFFSET -0.24384 7.07133 1.2192
          CHANNELS 3 Zrotation Xrotation Yrotation
          JOINT leftEye
          {
            OFFSET 4.14528 8.04674 8.04672
            CHANNELS 3 Zrotation Xrotation Yrotation
            End Site
            {
              OFFSET 1 0 0
            }
          }
          JOINT rightEye
          {
            OFFSET -3.6576 8.04674 8.04672
            CHANNELS 3 Zrotation Xrotation Yrotation
            End Site
            {
              OFFSET 1 0 0
            }
          }
        }
      }
      JOINT rCollar
      {
        OFFSET -2.68224 19.2634 -4.8768
        CHANNELS 3 Zrotation Xrotation Yrotation
        JOINT rShldr
        {
          OFFSET -8.77824 -1.95073 1.46304
          CHANNELS 3 Zrotation Xrotation Yrotation
          JOINT rForeArm
          {
            OFFSET -28.1742 -1.7115 0.48768
            CHANNELS 3 Zrotation Xrotation Yrotation
            JOINT rHand
            {
              OFFSET -22.5879 0.773209 7.07136
              CHANNELS 3 Zrotation Xrotation Yrotation
              JOINT rThumb1
              {
                OFFSET -1.2192 -0.487915 3.41376
                CHANNELS 3 Zrotation Xrotation Yrotation
                JOINT rThumb2
                {
                  OFFSET -3.37035 -0.52449 3.41376
                  CHANNELS 3 Zrotation Xrotation Yrotation
                  End Site
                  {
                    OFFSET -1.78271 -1.18214 1.43049
                  }
                }
              }
              JOINT rIndex1
              {
                OFFSET -7.75947 0.938293 5.60832
                CHANNELS 3 Zrotation Xrotation Yrotation
                JOINT rIndex2
                {
                  OFFSET -2.54057 -0.884171 1.56538
                  CHANNELS 3 Zrotation Xrotation Yrotation
                  End Site
                  {
                    OFFSET -1.62519 -0.234802 1.16502
                  }
                }
              }
              JOINT rMid1
              {
                OFFSET -8.24714 1.18213 3.41376
                CHANNELS 3 Zrotation Xrotation Yrotation
                JOINT rMid2
                {
                  OFFSET -3.10165 -0.590103 1.0647
                  CHANNELS 3 Zrotation Xrotation Yrotation
                  End Site
                  {
                    OFFSET -2.48547 -0.328903 0.83742
                  }
                }
              }
              JOINT rRing1
              {
                OFFSET -8.82822 0.546677 1.51678
                CHANNELS 3 Zrotation Xrotation Yrotation
                JOINT rRing2
                {
                  OFFSET -2.60934 -0.819778 -0.0198488
                  CHANNELS 3 Zrotation Xrotation Yrotation
                  End Site
                  {
                    OFFSET -2.33842 -0.294052 0.168128
                  }
                }
              }
              JOINT rPinky1
              {
                OFFSET -8.27202 -0.0477905 -0.4584
                CHANNELS 3 Zrotation Xrotation Yrotation
                JOINT rPinky2
                {
                  OFFSET -1.82734 -0.647385 -0.700984
                  CHANNELS 3 Zrotation Xrotation Yrotation
                  End Site
                  {
                    OFFSET -1.69225 -0.51767 -0.607171
                  }
                }
              }
            }
          }
        }
      }
      JOINT lCollar
      {
        OFFSET 2.68224 19.2634 -4.8768
        CHANNELS 3 Zrotation Xrotation Yrotation
        JOINT lShldr
        {
          OFFSET 8.77824 -1.95073 1.46304
          CHANNELS 3 Zrotation Xrotation Yrotation
          JOINT lForeArm
          {
            OFFSET 28.1742 -1.7115 0.48768
            CHANNELS 3 Zrotation Xrotation Yrotation
            JOINT lHand
            {
              OFFSET 22.5879 0.773209 7.07136
              CHANNELS 3 Zrotation Xrotation Yrotation
              JOINT lThumb1
              {
                OFFSET 1.2192 -0.487915 3.41376
                CHANNELS 3 Zrotation Xrotation Yrotation
                JOINT lThumb2
                {
                  OFFSET 3.37035 -0.52449 3.41376
                  CHANNELS 3 Zrotation Xrotation Yrotation
                  End Site
                  {
                    OFFSET 1.78271 -1.18214 1.43049
                  }
                }
              }
              JOINT lIndex1
              {
                OFFSET 7.75947 0.938293 5.60832
                CHANNELS 3 Zrotation Xrotation Yrotation
                JOINT lIndex2
                {
                  OFFSET 2.54057 -0.884171 1.56538
                  CHANNELS 3 Zrotation Xrotation Yrotation
                  End Site
                  {
                    OFFSET 1.62519 -0.234802 1.16502
                  }
                }
              }
              JOINT lMid1
              {
                OFFSET 8.24714 1.18213 3.41376
                CHANNELS 3 Zrotation Xrotation Yrotation
                JOINT lMid2
                {
                  OFFSET 3.10165 -0.590103 1.0647
                  CHANNELS 3 Zrotation Xrotation Yrotation
                  End Site
                  {
                    OFFSET 2.48547 -0.328903 0.83742
                  }
                }
              }
              JOINT lRing1
              {
                OFFSET 8.82822 0.546677 1.51678
                CHANNELS 3 Zrotation Xrotation Yrotation
                JOINT lRing2
                {
                  OFFSET 2.60934 -0.819778 -0.0198488
                  CHANNELS 3 Zrotation Xrotation Yrotation
                  End Site
                  {
                    OFFSET 2.33842 -0.294052 0.168128
                  }
                }
              }
              JOINT lPinky1
              {
                OFFSET 8.27202 -0.0477905 -0.4584
                CHANNELS 3 Zrotation Xrotation Yrotation
                JOINT lPinky2
                {
                  OFFSET 1.82734 -0.647385 -0.700984
                  CHANNELS 3 Zrotation Xrotation Yrotation
                  End Site
                  {
                    OFFSET 1.69225 -0.51767 -0.607171
                  }
                }
              }
            }
          }
        }
      }
    }
  }
  JOINT rButtock
  {
    OFFSET -8.77824 4.35084 1.2192
    CHANNELS 3 Zrotation Xrotation Yrotation
    JOINT rThigh
    {
      OFFSET 0 -1.70687 -2.19456
      CHANNELS 3 Zrotation Xrotation Yrotation
      JOINT rShin
      {
        OFFSET 0 -36.8199 0.73152
        CHANNELS 3 Zrotation Xrotation Yrotation
        JOINT rFoot
        {
          OFFSET 0.73152 -45.1104 -5.12064
          CHANNELS 3 Zrotation Xrotation Yrotation
          End Site
          {
            OFFSET -1.1221 -3.69964 12.103
          }
        }
      }
    }
  }
  JOINT lButtock
  {
    OFFSET 8.77824 4.35084 1.2192
    CHANNELS 3 Zrotation Xrotation Yrotation
    JOINT lThigh
    {
      OFFSET 0 -1.70687 -2.19456
      CHANNELS 3 Zrotation Xrotation Yrotation
      JOINT lShin
      {
        OFFSET 0 -36.8199 0.73152
        CHANNELS 3 Zrotation Xrotation Yrotation
        JOINT lFoot
        {
          OFFSET -0.73152 -45.1104 -5.12064
          CHANNELS 3 Zrotation Xrotation Yrotation
          End Site
          {
            OFFSET 1.1221 -3.69964 12.103
          }
        }
      }
    }
  }
}
MOTION
Frames:	8
Frame Time:	0.00833333
-96.9298 84.7178 -165.282 0.0 0.0 0.0 -0.462531 -0.00207375 -0.013201 -0.127532 -0.00315849 -0.0220954 -6.62772e-15 -7.95139e-16 1.86361e-16 -1.99468e-14 3.18055e-15 5.46658e-16 -0.0 0.0 0.0 -0.0 0.0 0.0 -3.38074e-15 6.40615e-18 2.48481e-16 -6.80302e-14 -1.73937e-16 2.78299e-15 -1.19569e-12 3.59999e-13 4.77083e-14 -1.37052e-11 -3.43251e-13 3.68944e-13 -3.2327e-11 3.76161e-14 9.31903e-13 -5.58342e-11 6.67917e-14 1.60618e-12 -3.23216e-11 3.89618e-14 9.22361e-13 7.73091 5.47488 0.417314 -3.23269e-11 3.76697e-14 9.35083e-13 2.90554 0.965183 0.102902 -3.23217e-11 3.8266e-14 9.31107e-13 10.2786 0.731801 0.0259123 -3.23295e-11 3.81667e-14 9.41444e-13 2.22167 -0.733487 -0.20892 -3.37815e-15 5.24139e-18 -4.96962e-17 -7.23498e-14 3.10601e-17 5.96354e-16 -1.20091e-12 -3.51849e-13 4.77083e-14 -1.37109e-11 3.81766e-13 3.84847e-13 -3.23448e-11 6.44376e-14 9.31903e-13 -5.58529e-11 1.11319e-13 1.61493e-12 -3.23502e-11 6.67917e-14 9.44625e-13 -7.73091 5.47488 -0.417314 -3.23455e-11 6.4605e-14 9.28722e-13 -2.90554 0.965183 -0.102902 -3.23486e-11 6.47044e-14 9.31903e-13 -10.2786 0.731801 -0.0259123 -3.23399e-11 6.48038e-14 9.1918e-13 -2.22167 -0.733487 0.20892 -2.03217e-16 0.0 -3.88251e-19 0.172405 -2.4816 -0.0258963 -0.00786772 -1.05711 -0.0680544 -0.522494 3.53839 0.132393 2.03217e-16 0.0 3.88251e-19 -0.875808 -4.26242 0.0710567 0.00283208 2.16851 0.0189662 0.52768 2.09369 -0.10329
-96.1227 82.7797 -168.632 -3.8005 31.6431 6.6069 -0.0822624 2.47451 -0.300254 0.715833 -1.04879 -0.0711043 -0.913889 0.689642 0.206306 0.960419 -1.78574 0.69561 -0.0 0.0 0.0 -0.0 0.0 0.0 -5.00885e-16 3.32637e-14 1.8901e-13 22.6997 3.91615 0.67092 -3.95138 -1.74511 6.22515 -0.000186431 0.0894954 0.0125752 -1.09394e-09 1.12746e-09 -6.74092e-10 -1.8948e-09 1.94986e-09 -1.16171e-09 -1.09393e-09 1.12746e-09 -6.74101e-10 7.73091 5.47488 0.417314 -1.09394e-09 1.12746e-09 -6.74089e-10 2.90554 0.965183 0.102902 -1.09393e-09 1.12746e-09 -6.74093e-10 10.2786 0.731801 0.0259123 -1.09394e-09 1.12746e-09 -6.74084e-10 2.22167 -0.733487 -0.20892 -5.4587e-16 3.32627e-14 1.88721e-13 -24.6426 3.20596 1.63618 6.906 -3.95532 -9.75182 -0.00089232 -0.662639 0.0931053 -5.85265e-10 -1.22296e-09 9.72618e-10 -1.01356e-09 -2.12073e-09 1.68676e-09 -5.85269e-10 -1.22295e-09 9.72628e-10 -7.73091 5.47488 -0.417314 -5.85266e-10 -1.22296e-09 9.72617e-10 -2.90554 0.965183 -0.102902 -5.85269e-10 -1.22296e-09 9.72619e-10 -10.2786 0.731801 -0.0259123 -5.8526e-10 -1.22296e-09 9.72608e-10 -2.22167 -0.733487 0.20892 -2.03217e-16 0.0 -3.88251e-19 1.41016 -6.88812 -1.11864 0.0165586 7.8636 0.0929832 -0.719651 -3.9512 -1.23 2.03217e-16 0.0 3.88251e-19 -0.878979 -8.09097 0.403051 -0.0136128 10.236 -0.120918 0.665807 -4.20216 0.715769
-95.9789 82.7804 -168.594 -4.0513 31.6404 6.3928 0.353523 5.09102 -0.600013 1.60405 -2.15697 -0.121139 -1.89132 1.41369 0.425054 2.04015 -3.67233 1.43689 -0.0 0.0 0.0 -0.0 0.0 0.0 3.98797e-15 6.1924e-14 3.96013e-13 46.5912 8.08052 1.38739 -7.71562 -3.51905 12.8194 -0.000566444 0.220516 0.030985 -2.29901e-09 2.37366e-09 -1.36852e-09 -3.98224e-09 4.10518e-09 -2.35817e-09 -2.29901e-09 2.37366e-09 -1.36853e-09 7.73091 5.47488 0.417314 -2.29901e-09 2.37366e-09 -1.36852e-09 2.90554 0.965183 0.102902 -2.29901e-09 2.37366e-09 -1.36852e-09 10.2786 0.731801 0.0259123 -2.29901e-09 2.37366e-09 -1.36852e-09 2.22167 -0.733487 -0.20892 3.88913e-15 6.19232e-14 3.95731e-13 -50.8938 6.59918 3.385 12.7681 -7.76078 -20.2148 0.000506194 -1.36247 0.191478 -1.24379e-09 -2.62436e-09 2.04702e-09 -2.15412e-09 -4.55076e-09 3.55004e-09 -1.24379e-09 -2.62436e-09 2.04702e-09 -7.73091 5.47488 -0.417314 -1.24379e-09 -2.62436e-09 2.04702e-09 -2.90554 0.965183 -0.102902 -1.24379e-09 -2.62436e-09 2.04702e-09 -10.2786 0.731801 -0.0259123 -1.24378e-09 -2.62436e-09 2.04701e-09 -2.22167 -0.733487 0.20892 -2.03217e-16 0.0 -3.88251e-19 2.54674 -11.51 -2.30225 -0.0140957 17.2333 0.272949 -1.31945 -11.8618 -2.71372 2.03217e-16 0.0 3.88251e-19 -0.821984 -12.1409 0.753264 0.0140848 18.7628 -0.279656 1.01228 -10.8428 1.61455
-95.782 82.7338 -168.6 -3.9559 31.6414 6.4088 0.753261 7.42693 -0.880912 2.39719 -3.14005 -0.169341 -2.75657 2.06882 0.619276 3.01179 -5.35405 2.09496 -0.0 0.0 0.0 -0.0 0.0 0.0 5.25883e-15 9.97783e-14 5.66534e-13 67.8189 11.7419 2.051 -10.7353 -4.98862 18.7404 -0.00067715 0.268486 0.0377261 -3.21715e-09 3.3823e-09 -2.02414e-09 -5.57272e-09 5.84945e-09 -3.48835e-09 -3.21715e-09 3.3823e-09 -2.02415e-09 7.73091 5.47488 0.417314 -3.21716e-09 3.3823e-09 -2.02414e-09 2.90554 0.965183 0.102902 -3.21715e-09 3.38231e-09 -2.02414e-09 10.2786 0.731801 0.0259123 -3.21715e-09 3.38231e-09 -2.02414e-09 2.22167 -0.733487 -0.20892 5.1187e-15 9.97777e-14 5.66263e-13 -74.483 9.58629 4.97042 16.8182 -10.4923 -29.7308 0.00378703 -1.98789 0.279465 -1.69111e-09 -3.669e-09 2.91599e-09 -2.92897e-09 -6.36241e-09 5.05705e-09 -1.69111e-09 -3.669e-09 2.916e-09 -7.73091 5.47488 -0.417314 -1.69111e-09 -3.669e-09 2.91599e-09 -2.90554 0.965183 -0.102902 -1.69111e-09 -3.669e-09 2.91599e-09 -10.2786 0.731801 -0.0259123 -1.6911e-09 -3.669e-09 2.91599e-09 -2.22167 -0.733487 0.20892 -2.03217e-16 0.0 -3.88251e-19 3.36427 -15.6787 -3.40687 -0.0974581 25.7043 0.457706 -2.22808 -18.8866 -4.1704 2.03217e-16 0.0 3.88251e-19 -0.747337 -15.7459 1.09655 0.0833719 26.3704 -0.440751 1.50069 -16.7803 2.45247
-95.552 82.6503 -168.607 -3.6194 31.6429 6.5224 1.01215 9.06198 -1.10875 2.95614 -3.81039 -0.212769 -3.33098 2.55178 0.751846 3.61986 -6.52671 2.5372 -0.0 0.0 0.0 -0.0 0.0 0.0 -1.51534e-15 1.60618e-13 6.45851e-13 82.5878 14.1521 2.5453 -12.6712 -5.93061 22.9168 -1.45264e-05 0.10883 0.0152951 -3.41797e-09 3.79704e-09 -2.58272e-09 -5.92083e-09 6.56609e-09 -4.4528e-09 -3.41797e-09 3.79704e-09 -2.58273e-09 7.73091 5.47488 0.417314 -3.41797e-09 3.79704e-09 -2.58272e-09 2.90554 0.965183 0.102902 -3.41797e-09 3.79704e-09 -2.58273e-09 10.2786 0.731801 0.0259123 -3.41797e-09 3.79705e-09 -2.58272e-09 2.22167 -0.733487 -0.20892 -1.66532e-15 1.60617e-13 6.45603e-13 -91.0182 11.5887 6.08711 19.0505 -11.8623 -36.4216 0.00723163 -2.42733 0.341345 -1.61042e-09 -3.82173e-09 3.27139e-09 -2.78955e-09 -6.62814e-09 5.67339e-09 -1.61042e-09 -3.82172e-09 3.2714e-09 -7.73091 5.47488 -0.417314 -1.61042e-09 -3.82172e-09 3.2714e-09 -2.90554 0.965183 -0.102902 -1.61042e-09 -3.82172e-09 3.2714e-09 -10.2786 0.731801 -0.0259123 -1.61041e-09 -3.82172e-09 3.27139e-09 -2.22167 -0.733487 0.20892 -2.03217e-16 0.0 -3.88251e-19 3.75029 -18.7342 -4.22489 -0.197898 31.9295 0.615009 -3.1172 -23.7387 -5.34116 2.03217e-16 0.0 3.88251e-19 -0.721143 -18.2404 1.39868 0.161411 31.6808 -0.570757 1.93586 -20.9742 3.03764
-95.3628 82.5372 -168.564 -3.5414 31.6571 6.5387 1.06639 9.70074 -1.26604 3.19099 -4.03613 -0.251265 -3.49997 2.79591 0.796173 3.66717 -6.98441 2.6691 -0.0 0.0 0.0 -0.0 0.0 0.0 -2.57468e-14 2.74769e-13 5.80629e-13 88.4158 14.7797 2.7787 -13.425 -6.30054 24.6293 0.00117373 -0.434547 -0.0610492 -2.3583e-09 3.19378e-09 -3.10495e-09 -4.08592e-09 5.52103e-09 -5.35789e-09 -2.3583e-09 3.19378e-09 -3.10496e-09 7.73091 5.47488 0.417314 -2.35831e-09 3.19378e-09 -3.10495e-09 2.90554 0.965183 0.102902 -2.3583e-09 3.19378e-09 -3.10495e-09 10.2786 0.731801 0.0259123 -2.35831e-09 3.19378e-09 -3.10495e-09 2.22167 -0.733487 -0.20892 -2.585e-14 2.74769e-13 5.80429e-13 -97.4925 12.2301 6.50425 19.7775 -12.2208 -38.9553 0.00927429 -2.64957 0.372661 -5.48785e-10 -2.3333e-09 2.73429e-09 -9.51649e-10 -4.04953e-09 4.74189e-09 -5.48786e-10 -2.33329e-09 2.7343e-09 -7.73091 5.47488 -0.417314 -5.48785e-10 -2.33329e-09 2.7343e-09 -2.90554 0.965183 -0.102902 -5.48789e-10 -2.33329e-09 2.7343e-09 -10.2786 0.731801 -0.0259123 -5.48779e-10 -2.33329e-09 2.7343e-09 -2.22167 -0.733487 0.20892 -2.03217e-16 0.0 -3.88251e-19 3.73535 -20.1996 -4.56243 -0.256774 34.9222 0.698416 -3.61397 -25.646 -5.9943 2.03217e-16 0.0 3.88251e-19 -0.795389 -19.204 1.62944 0.199618 33.7843 -0.627548 2.10464 -22.7381 3.20582
-95.1665 82.3975 -168.527 -3.4828 31.6962 6.6511 0.9668 9.62877 -1.37108 3.19485 -3.94462 -0.286097 -3.3779 2.86937 0.777475 3.3053 -6.93221 2.57794 -0.0 0.0 0.0 -0.0 0.0 0.0 -6.21529e-14 4.25995e-13 4.12966e-13 87.8798 14.1369 2.81836 -13.4078 -6.30895 24.5716 0.000217922 -1.24757 -0.175318 -4.10498e-10 1.87225e-09 -3.59647e-09 -7.12834e-10 3.23299e-09 -6.21235e-09 -4.10494e-10 1.87225e-09 -3.59648e-09 7.73091 5.47488 0.417314 -4.105e-10 1.87225e-09 -3.59648e-09 2.90554 0.965183 0.102902 -4.10498e-10 1.87225e-09 -3.59648e-09 10.2786 0.731801 0.0259123 -4.10507e-10 1.87225e-09 -3.59647e-09 2.22167 -0.733487 -0.20892 -6.21693e-14 4.25996e-13 4.12832e-13 -96.7408 11.9055 6.41062 19.6248 -12.0982 -38.4858 0.00983298 -2.71461 0.381828 1.20201e-09 3.08699e-10 1.56795e-09 2.07952e-09 5.2837e-10 2.7191e-09 1.20201e-09 3.08698e-10 1.56797e-09 -7.73091 5.47488 -0.417314 1.20201e-09 3.08698e-10 1.56796e-09 -2.90554 0.965183 -0.102902 1.20201e-09 3.08697e-10 1.56796e-09 -10.2786 0.731801 -0.0259123 1.20202e-09 3.08699e-10 1.56796e-09 -2.22167 -0.733487 0.20892 -2.03217e-16 0.0 -3.88251e-19 3.48009 -20.5359 -4.53714 -0.265221 35.6103 0.715012 -3.71502 -25.4586 -6.212 2.03217e-16 0.0 3.88251e-19 -0.956752 -19.0734 1.80332 0.194578 33.5969 -0.622123 2.03531 -22.7692 3.05105
-94.9272 82.2832 -168.503 -3.2754 31.7348 6.8271 0.778742 9.29745 -1.44217 3.10315 -3.73707 -0.316433 -3.12902 2.87114 0.736274 2.79689 -6.68299 2.40197 -0.0 0.0 0.0 -0.0 0.0 0.0 -9.35178e-14 5.58237e-13 2.31293e-13 84.7846 13.0427 2.77695 -13.0726 -6.16517 23.7802 -0.00376118 -2.01958 -0.28392 1.48262e-09 5.61891e-10 -3.91653e-09 2.56561e-09 9.646e-10 -6.77033e-09 1.48262e-09 5.61884e-10 -3.91655e-09 7.73091 5.47488 0.417314 1.48262e-09 5.61879e-10 -3.91654e-09 2.90554 0.965183 0.102902 1.48262e-09 5.61879e-10 -3.91654e-09 10.2786 0.731801 0.0259123 1.4826e-09 5.61881e-10 -3.91653e-09 2.22167 -0.733487 -0.20892 -9.34519e-14 5.58238e-13 2.31218e-13 -93.1106 11.2001 6.11604 19.1074 -11.7688 -36.8087 0.00909637 -2.6477 0.372394 2.8417e-09 2.78416e-09 4.27535e-10 4.91841e-09 4.81792e-09 7.41266e-10 2.84169e-09 2.78415e-09 4.27555e-10 -7.73091 5.47488 -0.417314 2.8417e-09 2.78415e-09 4.2754e-10 -2.90554 0.965183 -0.102902 2.8417e-09 2.78415e-09 4.27542e-10 -10.2786 0.731801 -0.0259123 2.8417e-09 2.78415e-09 4.27539e-10 -2.22167 -0.733487 0.20892 -2.03217e-16 0.0 -3.88251e-19 3.08667 -20.4947 -4.39308 -0.253631 35.519 0.703778 -3.58233 -24.335 -6.14404 2.03217e-16 0.0 3.88251e-19 -1.17755 -18.4688 1.94952 0.171739 32.4791 -0.591595 1.86196 -22.1054 2.74085
